<svg viewBox="0 0 32 32" xmlns="http://www.w3.org/2000/svg" role="img" aria-label="ClaudeGauge"><rect width="32" height="32" rx="7" fill="#FFFFFF"/><g transform="translate(4 4)"><g fill="none" stroke-width="3.1" stroke-linecap="round"><path d="M4.55 16.30 A 8.6 8.6 0 0 1 3.82 9.34" stroke="#8A43E6"/><path d="M3.82 9.34 A 8.6 8.6 0 0 1 8.50 4.14" stroke="#4FA8F0"/><path d="M8.50 4.14 A 8.6 8.6 0 0 1 15.50 4.14" stroke="#1FA45D"/><path d="M15.50 4.14 A 8.6 8.6 0 0 1 20.18 9.34" stroke="#F4811E"/><path d="M20.18 9.34 A 8.6 8.6 0 0 1 19.45 16.30" stroke="#E8482A"/></g><path d="M12 12 L 16.46 7.99" fill="none" stroke="#1B1B1B" stroke-width="2.4" stroke-linecap="round"/><circle cx="12" cy="12" r="2.3" fill="#1B1B1B"/><circle cx="12" cy="12" r="0.85" fill="#FFFFFF"/></g></svg>